<mxfile host="app.diagrams.net" modified="2023-05-26T22:11:01.946Z" agent="Mozilla/5.0 (Windows NT 10.0; Win64; x64) AppleWebKit/537.36 (KHTML, like Gecko) Chrome/113.0.0.0 Safari/537.36" etag="3Q07M8RJ-m596bvXsGjh" version="21.3.4" type="device">
  <diagram name="Sayfa -1" id="RC8Z3Om8tb_IrY7KSUlR">
    <mxGraphModel dx="1518" dy="646" grid="1" gridSize="10" guides="1" tooltips="1" connect="1" arrows="1" fold="1" page="1" pageScale="1" pageWidth="827" pageHeight="1169" math="0" shadow="0">
      <root>
        <mxCell id="0" />
        <mxCell id="1" parent="0" />
        <mxCell id="oHoN3_NJpQbHfXJQ5s68-1" value="Piton Technology &lt;br&gt;Muzik Uygulaması" style="swimlane;html=1;startSize=40;fontStyle=0;collapsible=0;horizontal=0;swimlaneLine=1;swimlaneFillColor=#ffffff;strokeWidth=2;whiteSpace=wrap;fillColor=#3399FF;" parent="1" vertex="1">
          <mxGeometry x="30" y="30" width="1430" height="500" as="geometry" />
        </mxCell>
        <mxCell id="oHoN3_NJpQbHfXJQ5s68-3" value="Genel Sürec&amp;nbsp;&amp;nbsp;" style="swimlane;html=1;startSize=20;fontStyle=0;collapsible=0;horizontal=0;swimlaneLine=1;swimlaneFillColor=#ffffff;strokeWidth=2;whiteSpace=wrap;fillColor=#CCCC00;" parent="oHoN3_NJpQbHfXJQ5s68-1" vertex="1">
          <mxGeometry x="40" y="170" width="1350" height="140" as="geometry" />
        </mxCell>
        <mxCell id="oHoN3_NJpQbHfXJQ5s68-14" style="edgeStyle=orthogonalEdgeStyle;rounded=0;orthogonalLoop=1;jettySize=auto;html=1;entryX=0;entryY=0.5;entryDx=0;entryDy=0;entryPerimeter=0;" parent="oHoN3_NJpQbHfXJQ5s68-3" source="oHoN3_NJpQbHfXJQ5s68-6" target="oHoN3_NJpQbHfXJQ5s68-7" edge="1">
          <mxGeometry relative="1" as="geometry" />
        </mxCell>
        <mxCell id="oHoN3_NJpQbHfXJQ5s68-6" value="" style="points=[[0.145,0.145,0],[0.5,0,0],[0.855,0.145,0],[1,0.5,0],[0.855,0.855,0],[0.5,1,0],[0.145,0.855,0],[0,0.5,0]];shape=mxgraph.bpmn.event;html=1;verticalLabelPosition=bottom;labelBackgroundColor=#ffffff;verticalAlign=top;align=center;perimeter=ellipsePerimeter;outlineConnect=0;aspect=fixed;outline=standard;symbol=general;fillColor=#99FF33;" parent="oHoN3_NJpQbHfXJQ5s68-3" vertex="1">
          <mxGeometry x="40" y="52.5" width="35" height="35" as="geometry" />
        </mxCell>
        <mxCell id="oHoN3_NJpQbHfXJQ5s68-23" style="edgeStyle=orthogonalEdgeStyle;rounded=0;orthogonalLoop=1;jettySize=auto;html=1;entryX=0;entryY=0.5;entryDx=0;entryDy=0;entryPerimeter=0;" parent="oHoN3_NJpQbHfXJQ5s68-3" source="oHoN3_NJpQbHfXJQ5s68-7" target="oHoN3_NJpQbHfXJQ5s68-9" edge="1">
          <mxGeometry relative="1" as="geometry" />
        </mxCell>
        <mxCell id="oHoN3_NJpQbHfXJQ5s68-7" value="&lt;b&gt;1. Adım&lt;/b&gt;&lt;br&gt;Sistem ihtiyaçlarını belirlemek." style="points=[[0.25,0,0],[0.5,0,0],[0.75,0,0],[1,0.25,0],[1,0.5,0],[1,0.75,0],[0.75,1,0],[0.5,1,0],[0.25,1,0],[0,0.75,0],[0,0.5,0],[0,0.25,0]];shape=mxgraph.bpmn.task;whiteSpace=wrap;rectStyle=rounded;size=10;html=1;container=1;expand=0;collapsible=0;taskMarker=abstract;" parent="oHoN3_NJpQbHfXJQ5s68-3" vertex="1">
          <mxGeometry x="120" y="35" width="120" height="70" as="geometry" />
        </mxCell>
        <mxCell id="oHoN3_NJpQbHfXJQ5s68-16" style="edgeStyle=orthogonalEdgeStyle;rounded=0;orthogonalLoop=1;jettySize=auto;html=1;entryX=0;entryY=0.5;entryDx=0;entryDy=0;entryPerimeter=0;" parent="oHoN3_NJpQbHfXJQ5s68-3" source="oHoN3_NJpQbHfXJQ5s68-9" target="oHoN3_NJpQbHfXJQ5s68-12" edge="1">
          <mxGeometry relative="1" as="geometry" />
        </mxCell>
        <mxCell id="oHoN3_NJpQbHfXJQ5s68-9" value="&lt;b&gt;2. Adım&lt;/b&gt;&lt;br&gt;Tasarım notlarını incelemek." style="points=[[0.25,0,0],[0.5,0,0],[0.75,0,0],[1,0.25,0],[1,0.5,0],[1,0.75,0],[0.75,1,0],[0.5,1,0],[0.25,1,0],[0,0.75,0],[0,0.5,0],[0,0.25,0]];shape=mxgraph.bpmn.task;whiteSpace=wrap;rectStyle=rounded;size=10;html=1;container=1;expand=0;collapsible=0;taskMarker=abstract;" parent="oHoN3_NJpQbHfXJQ5s68-3" vertex="1">
          <mxGeometry x="283.5" y="35" width="120" height="70" as="geometry" />
        </mxCell>
        <mxCell id="oHoN3_NJpQbHfXJQ5s68-19" style="edgeStyle=orthogonalEdgeStyle;rounded=0;orthogonalLoop=1;jettySize=auto;html=1;entryX=0;entryY=0.5;entryDx=0;entryDy=0;entryPerimeter=0;" parent="oHoN3_NJpQbHfXJQ5s68-3" source="oHoN3_NJpQbHfXJQ5s68-10" target="oHoN3_NJpQbHfXJQ5s68-11" edge="1">
          <mxGeometry relative="1" as="geometry" />
        </mxCell>
        <mxCell id="oHoN3_NJpQbHfXJQ5s68-10" value="&lt;b&gt;4. Adım&lt;/b&gt;&lt;br&gt;Gerekli sınıf, fonksiyon ve adımları içeren UML diyagramlarını oluşturmak." style="points=[[0.25,0,0],[0.5,0,0],[0.75,0,0],[1,0.25,0],[1,0.5,0],[1,0.75,0],[0.75,1,0],[0.5,1,0],[0.25,1,0],[0,0.75,0],[0,0.5,0],[0,0.25,0]];shape=mxgraph.bpmn.task;whiteSpace=wrap;rectStyle=rounded;size=10;html=1;container=1;expand=0;collapsible=0;taskMarker=abstract;fillColor=#FFFF99;" parent="oHoN3_NJpQbHfXJQ5s68-3" vertex="1">
          <mxGeometry x="700" y="35" width="170" height="70" as="geometry" />
        </mxCell>
        <mxCell id="PVPJIV_usJrOc7KHJ-qA-55" value="&lt;b&gt;4.3. Adım&lt;/b&gt;&lt;br&gt;Sistemin ihtiyacı olan Activity diyagramlarını oluşturmak." style="points=[[0.25,0,0],[0.5,0,0],[0.75,0,0],[1,0.25,0],[1,0.5,0],[1,0.75,0],[0.75,1,0],[0.5,1,0],[0.25,1,0],[0,0.75,0],[0,0.5,0],[0,0.25,0]];shape=mxgraph.bpmn.task;whiteSpace=wrap;rectStyle=rounded;size=10;html=1;container=1;expand=0;collapsible=0;taskMarker=abstract;" vertex="1" parent="oHoN3_NJpQbHfXJQ5s68-10">
          <mxGeometry x="-220" y="-145" width="140" height="70" as="geometry" />
        </mxCell>
        <mxCell id="PVPJIV_usJrOc7KHJ-qA-56" value="&lt;b&gt;4.1. Adım&lt;/b&gt;&lt;br&gt;Sistemin ihtiyacı olan UseCase diyagramlarını oluşturmak." style="points=[[0.25,0,0],[0.5,0,0],[0.75,0,0],[1,0.25,0],[1,0.5,0],[1,0.75,0],[0.75,1,0],[0.5,1,0],[0.25,1,0],[0,0.75,0],[0,0.5,0],[0,0.25,0]];shape=mxgraph.bpmn.task;whiteSpace=wrap;rectStyle=rounded;size=10;html=1;container=1;expand=0;collapsible=0;taskMarker=abstract;" vertex="1" parent="oHoN3_NJpQbHfXJQ5s68-10">
          <mxGeometry x="-580" y="-145" width="140" height="70" as="geometry" />
        </mxCell>
        <mxCell id="PVPJIV_usJrOc7KHJ-qA-57" value="&lt;b&gt;1. Adım&lt;/b&gt;&lt;br&gt;Sistem ihtiyaçlarını belirlemek." style="points=[[0.25,0,0],[0.5,0,0],[0.75,0,0],[1,0.25,0],[1,0.5,0],[1,0.75,0],[0.75,1,0],[0.5,1,0],[0.25,1,0],[0,0.75,0],[0,0.5,0],[0,0.25,0]];shape=mxgraph.bpmn.task;whiteSpace=wrap;rectStyle=rounded;size=10;html=1;container=1;expand=0;collapsible=0;taskMarker=abstract;" vertex="1" parent="PVPJIV_usJrOc7KHJ-qA-56">
          <mxGeometry y="145" width="120" height="70" as="geometry" />
        </mxCell>
        <mxCell id="PVPJIV_usJrOc7KHJ-qA-58" value="&lt;b&gt;4.2. Adım&lt;/b&gt;&lt;br&gt;Sistemin ihtiyacı olan Class diyagramlarını oluşturmak." style="points=[[0.25,0,0],[0.5,0,0],[0.75,0,0],[1,0.25,0],[1,0.5,0],[1,0.75,0],[0.75,1,0],[0.5,1,0],[0.25,1,0],[0,0.75,0],[0,0.5,0],[0,0.25,0]];shape=mxgraph.bpmn.task;whiteSpace=wrap;rectStyle=rounded;size=10;html=1;container=1;expand=0;collapsible=0;taskMarker=abstract;" vertex="1" parent="oHoN3_NJpQbHfXJQ5s68-10">
          <mxGeometry x="-400" y="-145" width="140" height="70" as="geometry" />
        </mxCell>
        <mxCell id="PVPJIV_usJrOc7KHJ-qA-59" value="&lt;b&gt;1. Adım&lt;/b&gt;&lt;br&gt;Sistem ihtiyaçlarını belirlemek." style="points=[[0.25,0,0],[0.5,0,0],[0.75,0,0],[1,0.25,0],[1,0.5,0],[1,0.75,0],[0.75,1,0],[0.5,1,0],[0.25,1,0],[0,0.75,0],[0,0.5,0],[0,0.25,0]];shape=mxgraph.bpmn.task;whiteSpace=wrap;rectStyle=rounded;size=10;html=1;container=1;expand=0;collapsible=0;taskMarker=abstract;" vertex="1" parent="PVPJIV_usJrOc7KHJ-qA-58">
          <mxGeometry x="-180" y="145" width="120" height="70" as="geometry" />
        </mxCell>
        <mxCell id="PVPJIV_usJrOc7KHJ-qA-60" value="&lt;b&gt;2. Adım&lt;/b&gt;&lt;br&gt;Tasarım notlarını incelemek." style="points=[[0.25,0,0],[0.5,0,0],[0.75,0,0],[1,0.25,0],[1,0.5,0],[1,0.75,0],[0.75,1,0],[0.5,1,0],[0.25,1,0],[0,0.75,0],[0,0.5,0],[0,0.25,0]];shape=mxgraph.bpmn.task;whiteSpace=wrap;rectStyle=rounded;size=10;html=1;container=1;expand=0;collapsible=0;taskMarker=abstract;" vertex="1" parent="oHoN3_NJpQbHfXJQ5s68-10">
          <mxGeometry x="-416.5" width="120" height="70" as="geometry" />
        </mxCell>
        <mxCell id="PVPJIV_usJrOc7KHJ-qA-61" value="&lt;b&gt;5.1. Adım&lt;/b&gt;&lt;br&gt;Sistemin ihtiyacı olan sınıfları oluşturmak." style="points=[[0.25,0,0],[0.5,0,0],[0.75,0,0],[1,0.25,0],[1,0.5,0],[1,0.75,0],[0.75,1,0],[0.5,1,0],[0.25,1,0],[0,0.75,0],[0,0.5,0],[0,0.25,0]];shape=mxgraph.bpmn.task;whiteSpace=wrap;rectStyle=rounded;size=10;html=1;container=1;expand=0;collapsible=0;taskMarker=abstract;" vertex="1" parent="oHoN3_NJpQbHfXJQ5s68-10">
          <mxGeometry x="-580" y="165" width="140" height="70" as="geometry" />
        </mxCell>
        <mxCell id="PVPJIV_usJrOc7KHJ-qA-62" value="&lt;b&gt;5.2. Adım&lt;/b&gt;&lt;br&gt;Sistemin ihtiyacı olan fonksiyonları oluşturmak." style="points=[[0.25,0,0],[0.5,0,0],[0.75,0,0],[1,0.25,0],[1,0.5,0],[1,0.75,0],[0.75,1,0],[0.5,1,0],[0.25,1,0],[0,0.75,0],[0,0.5,0],[0,0.25,0]];shape=mxgraph.bpmn.task;whiteSpace=wrap;rectStyle=rounded;size=10;html=1;container=1;expand=0;collapsible=0;taskMarker=abstract;" vertex="1" parent="oHoN3_NJpQbHfXJQ5s68-10">
          <mxGeometry x="-400" y="165" width="130" height="70" as="geometry" />
        </mxCell>
        <mxCell id="PVPJIV_usJrOc7KHJ-qA-63" value="&lt;b&gt;5.3. Adım&lt;/b&gt;&lt;br&gt;Sistemin ihtiyacı olan ana Widget&#39;ları oluşturmak." style="points=[[0.25,0,0],[0.5,0,0],[0.75,0,0],[1,0.25,0],[1,0.5,0],[1,0.75,0],[0.75,1,0],[0.5,1,0],[0.25,1,0],[0,0.75,0],[0,0.5,0],[0,0.25,0]];shape=mxgraph.bpmn.task;whiteSpace=wrap;rectStyle=rounded;size=10;html=1;container=1;expand=0;collapsible=0;taskMarker=abstract;" vertex="1" parent="oHoN3_NJpQbHfXJQ5s68-10">
          <mxGeometry x="-230" y="165" width="130" height="70" as="geometry" />
        </mxCell>
        <mxCell id="oHoN3_NJpQbHfXJQ5s68-20" style="edgeStyle=orthogonalEdgeStyle;rounded=0;orthogonalLoop=1;jettySize=auto;html=1;entryX=0;entryY=0.5;entryDx=0;entryDy=0;entryPerimeter=0;" parent="oHoN3_NJpQbHfXJQ5s68-3" source="oHoN3_NJpQbHfXJQ5s68-11" target="oHoN3_NJpQbHfXJQ5s68-13" edge="1">
          <mxGeometry relative="1" as="geometry" />
        </mxCell>
        <mxCell id="oHoN3_NJpQbHfXJQ5s68-11" value="&lt;b&gt;5. Adım&lt;/b&gt;&lt;br&gt;Flutter kodlarını yazmak." style="points=[[0.25,0,0],[0.5,0,0],[0.75,0,0],[1,0.25,0],[1,0.5,0],[1,0.75,0],[0.75,1,0],[0.5,1,0],[0.25,1,0],[0,0.75,0],[0,0.5,0],[0,0.25,0]];shape=mxgraph.bpmn.task;whiteSpace=wrap;rectStyle=rounded;size=10;html=1;container=1;expand=0;collapsible=0;taskMarker=abstract;" parent="oHoN3_NJpQbHfXJQ5s68-3" vertex="1">
          <mxGeometry x="920" y="35" width="120" height="70" as="geometry" />
        </mxCell>
        <mxCell id="oHoN3_NJpQbHfXJQ5s68-17" style="edgeStyle=orthogonalEdgeStyle;rounded=0;orthogonalLoop=1;jettySize=auto;html=1;entryX=0;entryY=0.5;entryDx=0;entryDy=0;entryPerimeter=0;" parent="oHoN3_NJpQbHfXJQ5s68-3" source="oHoN3_NJpQbHfXJQ5s68-12" target="oHoN3_NJpQbHfXJQ5s68-10" edge="1">
          <mxGeometry relative="1" as="geometry" />
        </mxCell>
        <mxCell id="oHoN3_NJpQbHfXJQ5s68-12" value="&lt;b&gt;3. Adım&lt;/b&gt;&lt;br&gt;Sistemin ihtiyacı olan yazılım(StarUml, Android Studio), görsel, veritabanı yapılarını belirlemek." style="points=[[0.25,0,0],[0.5,0,0],[0.75,0,0],[1,0.25,0],[1,0.5,0],[1,0.75,0],[0.75,1,0],[0.5,1,0],[0.25,1,0],[0,0.75,0],[0,0.5,0],[0,0.25,0]];shape=mxgraph.bpmn.task;whiteSpace=wrap;rectStyle=rounded;size=10;html=1;container=1;expand=0;collapsible=0;taskMarker=abstract;fillColor=#FFFF99;" parent="oHoN3_NJpQbHfXJQ5s68-3" vertex="1">
          <mxGeometry x="450" y="35" width="210" height="70" as="geometry" />
        </mxCell>
        <mxCell id="PVPJIV_usJrOc7KHJ-qA-46" value="&lt;b&gt;4.3. Adım&lt;/b&gt;&lt;br&gt;Sistemin ihtiyacı olan Activity diyagramlarını oluşturmak." style="points=[[0.25,0,0],[0.5,0,0],[0.75,0,0],[1,0.25,0],[1,0.5,0],[1,0.75,0],[0.75,1,0],[0.5,1,0],[0.25,1,0],[0,0.75,0],[0,0.5,0],[0,0.25,0]];shape=mxgraph.bpmn.task;whiteSpace=wrap;rectStyle=rounded;size=10;html=1;container=1;expand=0;collapsible=0;taskMarker=abstract;" vertex="1" parent="oHoN3_NJpQbHfXJQ5s68-12">
          <mxGeometry x="30" y="-145" width="140" height="70" as="geometry" />
        </mxCell>
        <mxCell id="PVPJIV_usJrOc7KHJ-qA-47" value="&lt;b&gt;4.1. Adım&lt;/b&gt;&lt;br&gt;Sistemin ihtiyacı olan UseCase diyagramlarını oluşturmak." style="points=[[0.25,0,0],[0.5,0,0],[0.75,0,0],[1,0.25,0],[1,0.5,0],[1,0.75,0],[0.75,1,0],[0.5,1,0],[0.25,1,0],[0,0.75,0],[0,0.5,0],[0,0.25,0]];shape=mxgraph.bpmn.task;whiteSpace=wrap;rectStyle=rounded;size=10;html=1;container=1;expand=0;collapsible=0;taskMarker=abstract;" vertex="1" parent="oHoN3_NJpQbHfXJQ5s68-12">
          <mxGeometry x="-330" y="-145" width="140" height="70" as="geometry" />
        </mxCell>
        <mxCell id="PVPJIV_usJrOc7KHJ-qA-48" value="&lt;b&gt;1. Adım&lt;/b&gt;&lt;br&gt;Sistem ihtiyaçlarını belirlemek." style="points=[[0.25,0,0],[0.5,0,0],[0.75,0,0],[1,0.25,0],[1,0.5,0],[1,0.75,0],[0.75,1,0],[0.5,1,0],[0.25,1,0],[0,0.75,0],[0,0.5,0],[0,0.25,0]];shape=mxgraph.bpmn.task;whiteSpace=wrap;rectStyle=rounded;size=10;html=1;container=1;expand=0;collapsible=0;taskMarker=abstract;" vertex="1" parent="PVPJIV_usJrOc7KHJ-qA-47">
          <mxGeometry y="145" width="120" height="70" as="geometry" />
        </mxCell>
        <mxCell id="PVPJIV_usJrOc7KHJ-qA-49" value="&lt;b&gt;4.2. Adım&lt;/b&gt;&lt;br&gt;Sistemin ihtiyacı olan Class diyagramlarını oluşturmak." style="points=[[0.25,0,0],[0.5,0,0],[0.75,0,0],[1,0.25,0],[1,0.5,0],[1,0.75,0],[0.75,1,0],[0.5,1,0],[0.25,1,0],[0,0.75,0],[0,0.5,0],[0,0.25,0]];shape=mxgraph.bpmn.task;whiteSpace=wrap;rectStyle=rounded;size=10;html=1;container=1;expand=0;collapsible=0;taskMarker=abstract;" vertex="1" parent="oHoN3_NJpQbHfXJQ5s68-12">
          <mxGeometry x="-150" y="-145" width="140" height="70" as="geometry" />
        </mxCell>
        <mxCell id="PVPJIV_usJrOc7KHJ-qA-50" value="&lt;b&gt;1. Adım&lt;/b&gt;&lt;br&gt;Sistem ihtiyaçlarını belirlemek." style="points=[[0.25,0,0],[0.5,0,0],[0.75,0,0],[1,0.25,0],[1,0.5,0],[1,0.75,0],[0.75,1,0],[0.5,1,0],[0.25,1,0],[0,0.75,0],[0,0.5,0],[0,0.25,0]];shape=mxgraph.bpmn.task;whiteSpace=wrap;rectStyle=rounded;size=10;html=1;container=1;expand=0;collapsible=0;taskMarker=abstract;" vertex="1" parent="PVPJIV_usJrOc7KHJ-qA-49">
          <mxGeometry x="-180" y="145" width="120" height="70" as="geometry" />
        </mxCell>
        <mxCell id="PVPJIV_usJrOc7KHJ-qA-51" value="&lt;b&gt;2. Adım&lt;/b&gt;&lt;br&gt;Tasarım notlarını incelemek." style="points=[[0.25,0,0],[0.5,0,0],[0.75,0,0],[1,0.25,0],[1,0.5,0],[1,0.75,0],[0.75,1,0],[0.5,1,0],[0.25,1,0],[0,0.75,0],[0,0.5,0],[0,0.25,0]];shape=mxgraph.bpmn.task;whiteSpace=wrap;rectStyle=rounded;size=10;html=1;container=1;expand=0;collapsible=0;taskMarker=abstract;" vertex="1" parent="oHoN3_NJpQbHfXJQ5s68-12">
          <mxGeometry x="-166.5" width="120" height="70" as="geometry" />
        </mxCell>
        <mxCell id="PVPJIV_usJrOc7KHJ-qA-52" value="&lt;b&gt;5.1. Adım&lt;/b&gt;&lt;br&gt;Sistemin ihtiyacı olan sınıfları oluşturmak." style="points=[[0.25,0,0],[0.5,0,0],[0.75,0,0],[1,0.25,0],[1,0.5,0],[1,0.75,0],[0.75,1,0],[0.5,1,0],[0.25,1,0],[0,0.75,0],[0,0.5,0],[0,0.25,0]];shape=mxgraph.bpmn.task;whiteSpace=wrap;rectStyle=rounded;size=10;html=1;container=1;expand=0;collapsible=0;taskMarker=abstract;" vertex="1" parent="oHoN3_NJpQbHfXJQ5s68-12">
          <mxGeometry x="-330" y="165" width="140" height="70" as="geometry" />
        </mxCell>
        <mxCell id="PVPJIV_usJrOc7KHJ-qA-53" value="&lt;b&gt;5.2. Adım&lt;/b&gt;&lt;br&gt;Sistemin ihtiyacı olan fonksiyonları oluşturmak." style="points=[[0.25,0,0],[0.5,0,0],[0.75,0,0],[1,0.25,0],[1,0.5,0],[1,0.75,0],[0.75,1,0],[0.5,1,0],[0.25,1,0],[0,0.75,0],[0,0.5,0],[0,0.25,0]];shape=mxgraph.bpmn.task;whiteSpace=wrap;rectStyle=rounded;size=10;html=1;container=1;expand=0;collapsible=0;taskMarker=abstract;" vertex="1" parent="oHoN3_NJpQbHfXJQ5s68-12">
          <mxGeometry x="-150" y="165" width="130" height="70" as="geometry" />
        </mxCell>
        <mxCell id="PVPJIV_usJrOc7KHJ-qA-54" value="&lt;b&gt;5.3. Adım&lt;/b&gt;&lt;br&gt;Sistemin ihtiyacı olan ana Widget&#39;ları oluşturmak." style="points=[[0.25,0,0],[0.5,0,0],[0.75,0,0],[1,0.25,0],[1,0.5,0],[1,0.75,0],[0.75,1,0],[0.5,1,0],[0.25,1,0],[0,0.75,0],[0,0.5,0],[0,0.25,0]];shape=mxgraph.bpmn.task;whiteSpace=wrap;rectStyle=rounded;size=10;html=1;container=1;expand=0;collapsible=0;taskMarker=abstract;" vertex="1" parent="oHoN3_NJpQbHfXJQ5s68-12">
          <mxGeometry x="20" y="165" width="130" height="70" as="geometry" />
        </mxCell>
        <mxCell id="PVPJIV_usJrOc7KHJ-qA-64" value="&lt;b&gt;4.3. Adım&lt;/b&gt;&lt;br&gt;Sistemin ihtiyacı olan Activity diyagramlarını oluşturmak." style="points=[[0.25,0,0],[0.5,0,0],[0.75,0,0],[1,0.25,0],[1,0.5,0],[1,0.75,0],[0.75,1,0],[0.5,1,0],[0.25,1,0],[0,0.75,0],[0,0.5,0],[0,0.25,0]];shape=mxgraph.bpmn.task;whiteSpace=wrap;rectStyle=rounded;size=10;html=1;container=1;expand=0;collapsible=0;taskMarker=abstract;fillColor=#FFFF99;" vertex="1" parent="oHoN3_NJpQbHfXJQ5s68-12">
          <mxGeometry x="30" y="-145" width="140" height="70" as="geometry" />
        </mxCell>
        <mxCell id="PVPJIV_usJrOc7KHJ-qA-65" value="&lt;b&gt;4.1. Adım&lt;/b&gt;&lt;br&gt;Sistemin ihtiyacı olan UseCase diyagramlarını oluşturmak." style="points=[[0.25,0,0],[0.5,0,0],[0.75,0,0],[1,0.25,0],[1,0.5,0],[1,0.75,0],[0.75,1,0],[0.5,1,0],[0.25,1,0],[0,0.75,0],[0,0.5,0],[0,0.25,0]];shape=mxgraph.bpmn.task;whiteSpace=wrap;rectStyle=rounded;size=10;html=1;container=1;expand=0;collapsible=0;taskMarker=abstract;fillColor=#FFFF99;" vertex="1" parent="oHoN3_NJpQbHfXJQ5s68-12">
          <mxGeometry x="-330" y="-145" width="140" height="70" as="geometry" />
        </mxCell>
        <mxCell id="PVPJIV_usJrOc7KHJ-qA-66" value="&lt;b&gt;1. Adım&lt;/b&gt;&lt;br&gt;Sistem ihtiyaçlarını belirlemek." style="points=[[0.25,0,0],[0.5,0,0],[0.75,0,0],[1,0.25,0],[1,0.5,0],[1,0.75,0],[0.75,1,0],[0.5,1,0],[0.25,1,0],[0,0.75,0],[0,0.5,0],[0,0.25,0]];shape=mxgraph.bpmn.task;whiteSpace=wrap;rectStyle=rounded;size=10;html=1;container=1;expand=0;collapsible=0;taskMarker=abstract;" vertex="1" parent="PVPJIV_usJrOc7KHJ-qA-65">
          <mxGeometry y="145" width="120" height="70" as="geometry" />
        </mxCell>
        <mxCell id="PVPJIV_usJrOc7KHJ-qA-67" value="&lt;b&gt;4.2. Adım&lt;/b&gt;&lt;br&gt;Sistemin ihtiyacı olan Class diyagramlarını oluşturmak." style="points=[[0.25,0,0],[0.5,0,0],[0.75,0,0],[1,0.25,0],[1,0.5,0],[1,0.75,0],[0.75,1,0],[0.5,1,0],[0.25,1,0],[0,0.75,0],[0,0.5,0],[0,0.25,0]];shape=mxgraph.bpmn.task;whiteSpace=wrap;rectStyle=rounded;size=10;html=1;container=1;expand=0;collapsible=0;taskMarker=abstract;fillColor=#FFFF99;" vertex="1" parent="oHoN3_NJpQbHfXJQ5s68-12">
          <mxGeometry x="-150" y="-145" width="140" height="70" as="geometry" />
        </mxCell>
        <mxCell id="PVPJIV_usJrOc7KHJ-qA-68" value="&lt;b&gt;1. Adım&lt;/b&gt;&lt;br&gt;Sistem ihtiyaçlarını belirlemek." style="points=[[0.25,0,0],[0.5,0,0],[0.75,0,0],[1,0.25,0],[1,0.5,0],[1,0.75,0],[0.75,1,0],[0.5,1,0],[0.25,1,0],[0,0.75,0],[0,0.5,0],[0,0.25,0]];shape=mxgraph.bpmn.task;whiteSpace=wrap;rectStyle=rounded;size=10;html=1;container=1;expand=0;collapsible=0;taskMarker=abstract;" vertex="1" parent="PVPJIV_usJrOc7KHJ-qA-67">
          <mxGeometry x="-180" y="145" width="120" height="70" as="geometry" />
        </mxCell>
        <mxCell id="PVPJIV_usJrOc7KHJ-qA-69" value="&lt;b&gt;2. Adım&lt;/b&gt;&lt;br&gt;Tasarım notlarını incelemek." style="points=[[0.25,0,0],[0.5,0,0],[0.75,0,0],[1,0.25,0],[1,0.5,0],[1,0.75,0],[0.75,1,0],[0.5,1,0],[0.25,1,0],[0,0.75,0],[0,0.5,0],[0,0.25,0]];shape=mxgraph.bpmn.task;whiteSpace=wrap;rectStyle=rounded;size=10;html=1;container=1;expand=0;collapsible=0;taskMarker=abstract;fillColor=#FFFF99;" vertex="1" parent="oHoN3_NJpQbHfXJQ5s68-12">
          <mxGeometry x="-166.5" width="120" height="70" as="geometry" />
        </mxCell>
        <mxCell id="PVPJIV_usJrOc7KHJ-qA-70" value="&lt;b&gt;5.1. Adım&lt;/b&gt;&lt;br&gt;Sistemin ihtiyacı olan sınıfları oluşturmak." style="points=[[0.25,0,0],[0.5,0,0],[0.75,0,0],[1,0.25,0],[1,0.5,0],[1,0.75,0],[0.75,1,0],[0.5,1,0],[0.25,1,0],[0,0.75,0],[0,0.5,0],[0,0.25,0]];shape=mxgraph.bpmn.task;whiteSpace=wrap;rectStyle=rounded;size=10;html=1;container=1;expand=0;collapsible=0;taskMarker=abstract;fillColor=#FFFF99;" vertex="1" parent="oHoN3_NJpQbHfXJQ5s68-12">
          <mxGeometry x="-330" y="165" width="140" height="70" as="geometry" />
        </mxCell>
        <mxCell id="PVPJIV_usJrOc7KHJ-qA-71" value="&lt;b&gt;5.2. Adım&lt;/b&gt;&lt;br&gt;Sistemin ihtiyacı olan fonksiyonları oluşturmak." style="points=[[0.25,0,0],[0.5,0,0],[0.75,0,0],[1,0.25,0],[1,0.5,0],[1,0.75,0],[0.75,1,0],[0.5,1,0],[0.25,1,0],[0,0.75,0],[0,0.5,0],[0,0.25,0]];shape=mxgraph.bpmn.task;whiteSpace=wrap;rectStyle=rounded;size=10;html=1;container=1;expand=0;collapsible=0;taskMarker=abstract;fillColor=#FFFF99;" vertex="1" parent="oHoN3_NJpQbHfXJQ5s68-12">
          <mxGeometry x="-150" y="165" width="130" height="70" as="geometry" />
        </mxCell>
        <mxCell id="PVPJIV_usJrOc7KHJ-qA-72" value="&lt;b&gt;5.3. Adım&lt;/b&gt;&lt;br&gt;Sistemin ihtiyacı olan ana Widget&#39;ları oluşturmak." style="points=[[0.25,0,0],[0.5,0,0],[0.75,0,0],[1,0.25,0],[1,0.5,0],[1,0.75,0],[0.75,1,0],[0.5,1,0],[0.25,1,0],[0,0.75,0],[0,0.5,0],[0,0.25,0]];shape=mxgraph.bpmn.task;whiteSpace=wrap;rectStyle=rounded;size=10;html=1;container=1;expand=0;collapsible=0;taskMarker=abstract;fillColor=#FFFF99;" vertex="1" parent="oHoN3_NJpQbHfXJQ5s68-12">
          <mxGeometry x="20" y="165" width="130" height="70" as="geometry" />
        </mxCell>
        <mxCell id="PVPJIV_usJrOc7KHJ-qA-73" value="&lt;b&gt;5. Adım&lt;/b&gt;&lt;br&gt;Flutter kodlarını yazmak." style="points=[[0.25,0,0],[0.5,0,0],[0.75,0,0],[1,0.25,0],[1,0.5,0],[1,0.75,0],[0.75,1,0],[0.5,1,0],[0.25,1,0],[0,0.75,0],[0,0.5,0],[0,0.25,0]];shape=mxgraph.bpmn.task;whiteSpace=wrap;rectStyle=rounded;size=10;html=1;container=1;expand=0;collapsible=0;taskMarker=abstract;fillColor=#FFFF99;" vertex="1" parent="oHoN3_NJpQbHfXJQ5s68-12">
          <mxGeometry x="470" width="120" height="70" as="geometry" />
        </mxCell>
        <mxCell id="oHoN3_NJpQbHfXJQ5s68-22" style="edgeStyle=orthogonalEdgeStyle;rounded=0;orthogonalLoop=1;jettySize=auto;html=1;entryX=0;entryY=0.5;entryDx=0;entryDy=0;entryPerimeter=0;" parent="oHoN3_NJpQbHfXJQ5s68-3" source="oHoN3_NJpQbHfXJQ5s68-13" target="oHoN3_NJpQbHfXJQ5s68-21" edge="1">
          <mxGeometry relative="1" as="geometry" />
        </mxCell>
        <mxCell id="oHoN3_NJpQbHfXJQ5s68-13" value="&lt;b&gt;6. Adım&lt;/b&gt;&lt;br&gt;Projeyi tüm proje dosyaları ile teslim etmek." style="points=[[0.25,0,0],[0.5,0,0],[0.75,0,0],[1,0.25,0],[1,0.5,0],[1,0.75,0],[0.75,1,0],[0.5,1,0],[0.25,1,0],[0,0.75,0],[0,0.5,0],[0,0.25,0]];shape=mxgraph.bpmn.task;whiteSpace=wrap;rectStyle=rounded;size=10;html=1;container=1;expand=0;collapsible=0;taskMarker=abstract;fillColor=#FFFF99;" parent="oHoN3_NJpQbHfXJQ5s68-3" vertex="1">
          <mxGeometry x="1090" y="35" width="120" height="70" as="geometry" />
        </mxCell>
        <mxCell id="oHoN3_NJpQbHfXJQ5s68-21" value="" style="points=[[0.145,0.145,0],[0.5,0,0],[0.855,0.145,0],[1,0.5,0],[0.855,0.855,0],[0.5,1,0],[0.145,0.855,0],[0,0.5,0]];shape=mxgraph.bpmn.event;html=1;verticalLabelPosition=bottom;labelBackgroundColor=#ffffff;verticalAlign=top;align=center;perimeter=ellipsePerimeter;outlineConnect=0;aspect=fixed;outline=end;symbol=terminate2;fillColor=#FF0000;" parent="oHoN3_NJpQbHfXJQ5s68-3" vertex="1">
          <mxGeometry x="1250" y="52.5" width="35" height="35" as="geometry" />
        </mxCell>
        <mxCell id="PVPJIV_usJrOc7KHJ-qA-24" value="Project Start" style="text;html=1;strokeColor=none;fillColor=none;align=center;verticalAlign=middle;whiteSpace=wrap;rounded=0;" vertex="1" parent="oHoN3_NJpQbHfXJQ5s68-3">
          <mxGeometry x="27.5" y="87.5" width="60" height="30" as="geometry" />
        </mxCell>
        <mxCell id="PVPJIV_usJrOc7KHJ-qA-39" value="Project Finish" style="text;html=1;strokeColor=none;fillColor=none;align=center;verticalAlign=middle;whiteSpace=wrap;rounded=0;" vertex="1" parent="oHoN3_NJpQbHfXJQ5s68-3">
          <mxGeometry x="1237.5" y="87.5" width="60" height="32.5" as="geometry" />
        </mxCell>
        <mxCell id="oHoN3_NJpQbHfXJQ5s68-4" value="Flutter Süreci" style="swimlane;html=1;startSize=20;fontStyle=0;collapsible=0;horizontal=0;swimlaneLine=1;swimlaneFillColor=#ffffff;strokeWidth=2;whiteSpace=wrap;fillColor=#00CCCC;" parent="oHoN3_NJpQbHfXJQ5s68-1" vertex="1">
          <mxGeometry x="40" y="310" width="1090" height="190" as="geometry" />
        </mxCell>
        <mxCell id="PVPJIV_usJrOc7KHJ-qA-4" style="edgeStyle=orthogonalEdgeStyle;rounded=0;orthogonalLoop=1;jettySize=auto;html=1;entryX=0;entryY=0.5;entryDx=0;entryDy=0;entryPerimeter=0;" edge="1" parent="oHoN3_NJpQbHfXJQ5s68-4" source="oHoN3_NJpQbHfXJQ5s68-55" target="oHoN3_NJpQbHfXJQ5s68-56">
          <mxGeometry relative="1" as="geometry" />
        </mxCell>
        <mxCell id="oHoN3_NJpQbHfXJQ5s68-55" value="" style="points=[[0.145,0.145,0],[0.5,0,0],[0.855,0.145,0],[1,0.5,0],[0.855,0.855,0],[0.5,1,0],[0.145,0.855,0],[0,0.5,0]];shape=mxgraph.bpmn.event;html=1;verticalLabelPosition=bottom;labelBackgroundColor=#ffffff;verticalAlign=top;align=center;perimeter=ellipsePerimeter;outlineConnect=0;aspect=fixed;outline=throwing;symbol=general;fillColor=#FFB366;" parent="oHoN3_NJpQbHfXJQ5s68-4" vertex="1">
          <mxGeometry x="40" y="75" width="40" height="40" as="geometry" />
        </mxCell>
        <mxCell id="PVPJIV_usJrOc7KHJ-qA-5" style="edgeStyle=orthogonalEdgeStyle;rounded=0;orthogonalLoop=1;jettySize=auto;html=1;entryX=0;entryY=0.5;entryDx=0;entryDy=0;entryPerimeter=0;" edge="1" parent="oHoN3_NJpQbHfXJQ5s68-4" source="oHoN3_NJpQbHfXJQ5s68-56" target="oHoN3_NJpQbHfXJQ5s68-57">
          <mxGeometry relative="1" as="geometry" />
        </mxCell>
        <mxCell id="oHoN3_NJpQbHfXJQ5s68-56" value="&lt;b&gt;5.1. Adım&lt;/b&gt;&lt;br&gt;Sistemin ihtiyacı olan sınıfları oluşturmak." style="points=[[0.25,0,0],[0.5,0,0],[0.75,0,0],[1,0.25,0],[1,0.5,0],[1,0.75,0],[0.75,1,0],[0.5,1,0],[0.25,1,0],[0,0.75,0],[0,0.5,0],[0,0.25,0]];shape=mxgraph.bpmn.task;whiteSpace=wrap;rectStyle=rounded;size=10;html=1;container=1;expand=0;collapsible=0;taskMarker=abstract;" parent="oHoN3_NJpQbHfXJQ5s68-4" vertex="1">
          <mxGeometry x="120" y="60" width="140" height="70" as="geometry" />
        </mxCell>
        <mxCell id="PVPJIV_usJrOc7KHJ-qA-6" style="edgeStyle=orthogonalEdgeStyle;rounded=0;orthogonalLoop=1;jettySize=auto;html=1;entryX=0;entryY=0.5;entryDx=0;entryDy=0;entryPerimeter=0;" edge="1" parent="oHoN3_NJpQbHfXJQ5s68-4" source="oHoN3_NJpQbHfXJQ5s68-57" target="oHoN3_NJpQbHfXJQ5s68-62">
          <mxGeometry relative="1" as="geometry" />
        </mxCell>
        <mxCell id="oHoN3_NJpQbHfXJQ5s68-57" value="&lt;b&gt;5.2. Adım&lt;/b&gt;&lt;br&gt;Sistemin ihtiyacı olan fonksiyonları oluşturmak." style="points=[[0.25,0,0],[0.5,0,0],[0.75,0,0],[1,0.25,0],[1,0.5,0],[1,0.75,0],[0.75,1,0],[0.5,1,0],[0.25,1,0],[0,0.75,0],[0,0.5,0],[0,0.25,0]];shape=mxgraph.bpmn.task;whiteSpace=wrap;rectStyle=rounded;size=10;html=1;container=1;expand=0;collapsible=0;taskMarker=abstract;" parent="oHoN3_NJpQbHfXJQ5s68-4" vertex="1">
          <mxGeometry x="300" y="60" width="130" height="70" as="geometry" />
        </mxCell>
        <mxCell id="PVPJIV_usJrOc7KHJ-qA-7" style="edgeStyle=orthogonalEdgeStyle;rounded=0;orthogonalLoop=1;jettySize=auto;html=1;entryX=0;entryY=0.5;entryDx=0;entryDy=0;entryPerimeter=0;" edge="1" parent="oHoN3_NJpQbHfXJQ5s68-4" source="oHoN3_NJpQbHfXJQ5s68-62" target="PVPJIV_usJrOc7KHJ-qA-1">
          <mxGeometry relative="1" as="geometry" />
        </mxCell>
        <mxCell id="oHoN3_NJpQbHfXJQ5s68-62" value="&lt;b&gt;5.3. Adım&lt;/b&gt;&lt;br&gt;Sistemin ihtiyacı olan ana Widget&#39;ları oluşturmak." style="points=[[0.25,0,0],[0.5,0,0],[0.75,0,0],[1,0.25,0],[1,0.5,0],[1,0.75,0],[0.75,1,0],[0.5,1,0],[0.25,1,0],[0,0.75,0],[0,0.5,0],[0,0.25,0]];shape=mxgraph.bpmn.task;whiteSpace=wrap;rectStyle=rounded;size=10;html=1;container=1;expand=0;collapsible=0;taskMarker=abstract;" parent="oHoN3_NJpQbHfXJQ5s68-4" vertex="1">
          <mxGeometry x="470" y="60" width="130" height="70" as="geometry" />
        </mxCell>
        <mxCell id="PVPJIV_usJrOc7KHJ-qA-8" style="edgeStyle=orthogonalEdgeStyle;rounded=0;orthogonalLoop=1;jettySize=auto;html=1;entryX=0;entryY=0.5;entryDx=0;entryDy=0;entryPerimeter=0;" edge="1" parent="oHoN3_NJpQbHfXJQ5s68-4" source="PVPJIV_usJrOc7KHJ-qA-1" target="PVPJIV_usJrOc7KHJ-qA-2">
          <mxGeometry relative="1" as="geometry" />
        </mxCell>
        <mxCell id="PVPJIV_usJrOc7KHJ-qA-1" value="&lt;b&gt;5.4. Adım&lt;/b&gt;&lt;br&gt;Sistemin ihtiyacı olan tasarımı oluşturmak." style="points=[[0.25,0,0],[0.5,0,0],[0.75,0,0],[1,0.25,0],[1,0.5,0],[1,0.75,0],[0.75,1,0],[0.5,1,0],[0.25,1,0],[0,0.75,0],[0,0.5,0],[0,0.25,0]];shape=mxgraph.bpmn.task;whiteSpace=wrap;rectStyle=rounded;size=10;html=1;container=1;expand=0;collapsible=0;taskMarker=abstract;fillColor=#FFFF99;" vertex="1" parent="oHoN3_NJpQbHfXJQ5s68-4">
          <mxGeometry x="640" y="60" width="130" height="70" as="geometry" />
        </mxCell>
        <mxCell id="PVPJIV_usJrOc7KHJ-qA-9" style="edgeStyle=orthogonalEdgeStyle;rounded=0;orthogonalLoop=1;jettySize=auto;html=1;entryX=0;entryY=0.5;entryDx=0;entryDy=0;entryPerimeter=0;" edge="1" parent="oHoN3_NJpQbHfXJQ5s68-4" source="PVPJIV_usJrOc7KHJ-qA-2">
          <mxGeometry relative="1" as="geometry">
            <mxPoint x="980" y="95" as="targetPoint" />
          </mxGeometry>
        </mxCell>
        <mxCell id="PVPJIV_usJrOc7KHJ-qA-2" value="&lt;b&gt;5.5. Adım&lt;/b&gt;&lt;br&gt;Flutter kodlarını bitirmek." style="points=[[0.25,0,0],[0.5,0,0],[0.75,0,0],[1,0.25,0],[1,0.5,0],[1,0.75,0],[0.75,1,0],[0.5,1,0],[0.25,1,0],[0,0.75,0],[0,0.5,0],[0,0.25,0]];shape=mxgraph.bpmn.task;whiteSpace=wrap;rectStyle=rounded;size=10;html=1;container=1;expand=0;collapsible=0;taskMarker=abstract;fillColor=#FFFF99;" vertex="1" parent="oHoN3_NJpQbHfXJQ5s68-4">
          <mxGeometry x="810" y="60" width="130" height="70" as="geometry" />
        </mxCell>
        <mxCell id="PVPJIV_usJrOc7KHJ-qA-40" value="Flutter Start" style="text;html=1;strokeColor=none;fillColor=none;align=center;verticalAlign=middle;whiteSpace=wrap;rounded=0;" vertex="1" parent="oHoN3_NJpQbHfXJQ5s68-4">
          <mxGeometry x="30" y="115" width="60" height="30" as="geometry" />
        </mxCell>
        <mxCell id="PVPJIV_usJrOc7KHJ-qA-41" value="Flutter Finish" style="text;html=1;strokeColor=none;fillColor=none;align=center;verticalAlign=middle;whiteSpace=wrap;rounded=0;" vertex="1" parent="oHoN3_NJpQbHfXJQ5s68-4">
          <mxGeometry x="967.5" y="112.5" width="60" height="30" as="geometry" />
        </mxCell>
        <mxCell id="PVPJIV_usJrOc7KHJ-qA-43" value="" style="points=[[0.145,0.145,0],[0.5,0,0],[0.855,0.145,0],[1,0.5,0],[0.855,0.855,0],[0.5,1,0],[0.145,0.855,0],[0,0.5,0]];shape=mxgraph.bpmn.event;html=1;verticalLabelPosition=bottom;labelBackgroundColor=#ffffff;verticalAlign=top;align=center;perimeter=ellipsePerimeter;outlineConnect=0;aspect=fixed;outline=throwing;symbol=general;fillColor=#FFB366;" vertex="1" parent="oHoN3_NJpQbHfXJQ5s68-4">
          <mxGeometry x="977.5" y="75" width="40" height="40" as="geometry" />
        </mxCell>
        <mxCell id="oHoN3_NJpQbHfXJQ5s68-24" value="UML Diyagram Süreci" style="swimlane;html=1;startSize=20;fontStyle=0;collapsible=0;horizontal=0;swimlaneLine=1;swimlaneFillColor=#ffffff;strokeWidth=2;whiteSpace=wrap;fillColor=#7F00FF;" parent="oHoN3_NJpQbHfXJQ5s68-1" vertex="1">
          <mxGeometry x="40" width="880" height="190" as="geometry" />
        </mxCell>
        <mxCell id="oHoN3_NJpQbHfXJQ5s68-51" style="edgeStyle=orthogonalEdgeStyle;rounded=0;orthogonalLoop=1;jettySize=auto;html=1;entryX=0;entryY=0.5;entryDx=0;entryDy=0;entryPerimeter=0;" parent="oHoN3_NJpQbHfXJQ5s68-24" source="oHoN3_NJpQbHfXJQ5s68-25" target="oHoN3_NJpQbHfXJQ5s68-26" edge="1">
          <mxGeometry relative="1" as="geometry" />
        </mxCell>
        <mxCell id="oHoN3_NJpQbHfXJQ5s68-25" value="" style="points=[[0.145,0.145,0],[0.5,0,0],[0.855,0.145,0],[1,0.5,0],[0.855,0.855,0],[0.5,1,0],[0.145,0.855,0],[0,0.5,0]];shape=mxgraph.bpmn.event;html=1;verticalLabelPosition=bottom;labelBackgroundColor=#ffffff;verticalAlign=top;align=center;perimeter=ellipsePerimeter;outlineConnect=0;aspect=fixed;outline=throwing;symbol=general;fillColor=#FFB366;" parent="oHoN3_NJpQbHfXJQ5s68-24" vertex="1">
          <mxGeometry x="37.5" y="75" width="40" height="40" as="geometry" />
        </mxCell>
        <mxCell id="oHoN3_NJpQbHfXJQ5s68-52" style="edgeStyle=orthogonalEdgeStyle;rounded=0;orthogonalLoop=1;jettySize=auto;html=1;entryX=0;entryY=0.5;entryDx=0;entryDy=0;entryPerimeter=0;" parent="oHoN3_NJpQbHfXJQ5s68-24" source="oHoN3_NJpQbHfXJQ5s68-26" target="oHoN3_NJpQbHfXJQ5s68-48" edge="1">
          <mxGeometry relative="1" as="geometry" />
        </mxCell>
        <mxCell id="oHoN3_NJpQbHfXJQ5s68-26" value="&lt;b&gt;4.1. Adım&lt;/b&gt;&lt;br&gt;Sistemin ihtiyacı olan UseCase diyagramlarını oluşturmak." style="points=[[0.25,0,0],[0.5,0,0],[0.75,0,0],[1,0.25,0],[1,0.5,0],[1,0.75,0],[0.75,1,0],[0.5,1,0],[0.25,1,0],[0,0.75,0],[0,0.5,0],[0,0.25,0]];shape=mxgraph.bpmn.task;whiteSpace=wrap;rectStyle=rounded;size=10;html=1;container=1;expand=0;collapsible=0;taskMarker=abstract;" parent="oHoN3_NJpQbHfXJQ5s68-24" vertex="1">
          <mxGeometry x="120" y="60" width="140" height="70" as="geometry" />
        </mxCell>
        <mxCell id="PVPJIV_usJrOc7KHJ-qA-44" value="&lt;b&gt;1. Adım&lt;/b&gt;&lt;br&gt;Sistem ihtiyaçlarını belirlemek." style="points=[[0.25,0,0],[0.5,0,0],[0.75,0,0],[1,0.25,0],[1,0.5,0],[1,0.75,0],[0.75,1,0],[0.5,1,0],[0.25,1,0],[0,0.75,0],[0,0.5,0],[0,0.25,0]];shape=mxgraph.bpmn.task;whiteSpace=wrap;rectStyle=rounded;size=10;html=1;container=1;expand=0;collapsible=0;taskMarker=abstract;" vertex="1" parent="oHoN3_NJpQbHfXJQ5s68-26">
          <mxGeometry y="145" width="120" height="70" as="geometry" />
        </mxCell>
        <mxCell id="oHoN3_NJpQbHfXJQ5s68-53" style="edgeStyle=orthogonalEdgeStyle;rounded=0;orthogonalLoop=1;jettySize=auto;html=1;entryX=0;entryY=0.5;entryDx=0;entryDy=0;entryPerimeter=0;" parent="oHoN3_NJpQbHfXJQ5s68-24" source="oHoN3_NJpQbHfXJQ5s68-48" target="oHoN3_NJpQbHfXJQ5s68-49" edge="1">
          <mxGeometry relative="1" as="geometry" />
        </mxCell>
        <mxCell id="oHoN3_NJpQbHfXJQ5s68-48" value="&lt;b&gt;4.2. Adım&lt;/b&gt;&lt;br&gt;Sistemin ihtiyacı olan Class diyagramlarını oluşturmak." style="points=[[0.25,0,0],[0.5,0,0],[0.75,0,0],[1,0.25,0],[1,0.5,0],[1,0.75,0],[0.75,1,0],[0.5,1,0],[0.25,1,0],[0,0.75,0],[0,0.5,0],[0,0.25,0]];shape=mxgraph.bpmn.task;whiteSpace=wrap;rectStyle=rounded;size=10;html=1;container=1;expand=0;collapsible=0;taskMarker=abstract;" parent="oHoN3_NJpQbHfXJQ5s68-24" vertex="1">
          <mxGeometry x="300" y="60" width="140" height="70" as="geometry" />
        </mxCell>
        <mxCell id="PVPJIV_usJrOc7KHJ-qA-45" value="&lt;b&gt;1. Adım&lt;/b&gt;&lt;br&gt;Sistem ihtiyaçlarını belirlemek." style="points=[[0.25,0,0],[0.5,0,0],[0.75,0,0],[1,0.25,0],[1,0.5,0],[1,0.75,0],[0.75,1,0],[0.5,1,0],[0.25,1,0],[0,0.75,0],[0,0.5,0],[0,0.25,0]];shape=mxgraph.bpmn.task;whiteSpace=wrap;rectStyle=rounded;size=10;html=1;container=1;expand=0;collapsible=0;taskMarker=abstract;" vertex="1" parent="oHoN3_NJpQbHfXJQ5s68-48">
          <mxGeometry x="-180" y="145" width="120" height="70" as="geometry" />
        </mxCell>
        <mxCell id="PVPJIV_usJrOc7KHJ-qA-74" value="&lt;b&gt;5.3. Adım&lt;/b&gt;&lt;br&gt;Sistemin ihtiyacı olan ana Widget&#39;ları oluşturmak." style="points=[[0.25,0,0],[0.5,0,0],[0.75,0,0],[1,0.25,0],[1,0.5,0],[1,0.75,0],[0.75,1,0],[0.5,1,0],[0.25,1,0],[0,0.75,0],[0,0.5,0],[0,0.25,0]];shape=mxgraph.bpmn.task;whiteSpace=wrap;rectStyle=rounded;size=10;html=1;container=1;expand=0;collapsible=0;taskMarker=abstract;fillColor=#FFFF99;" vertex="1" parent="PVPJIV_usJrOc7KHJ-qA-45">
          <mxGeometry x="350" y="165" width="130" height="70" as="geometry" />
        </mxCell>
        <mxCell id="PVPJIV_usJrOc7KHJ-qA-80" value="&lt;b&gt;4.2. Adım&lt;/b&gt;&lt;br&gt;Sistemin ihtiyacı olan Class diyagramlarını oluşturmak." style="points=[[0.25,0,0],[0.5,0,0],[0.75,0,0],[1,0.25,0],[1,0.5,0],[1,0.75,0],[0.75,1,0],[0.5,1,0],[0.25,1,0],[0,0.75,0],[0,0.5,0],[0,0.25,0]];shape=mxgraph.bpmn.task;whiteSpace=wrap;rectStyle=rounded;size=10;html=1;container=1;expand=0;collapsible=0;taskMarker=abstract;fillColor=#FFFF99;" vertex="1" parent="PVPJIV_usJrOc7KHJ-qA-74">
          <mxGeometry x="-170" y="-310" width="140" height="70" as="geometry" />
        </mxCell>
        <mxCell id="PVPJIV_usJrOc7KHJ-qA-81" value="&lt;b&gt;1. Adım&lt;/b&gt;&lt;br&gt;Sistem ihtiyaçlarını belirlemek." style="points=[[0.25,0,0],[0.5,0,0],[0.75,0,0],[1,0.25,0],[1,0.5,0],[1,0.75,0],[0.75,1,0],[0.5,1,0],[0.25,1,0],[0,0.75,0],[0,0.5,0],[0,0.25,0]];shape=mxgraph.bpmn.task;whiteSpace=wrap;rectStyle=rounded;size=10;html=1;container=1;expand=0;collapsible=0;taskMarker=abstract;" vertex="1" parent="PVPJIV_usJrOc7KHJ-qA-80">
          <mxGeometry x="-180" y="145" width="120" height="70" as="geometry" />
        </mxCell>
        <mxCell id="PVPJIV_usJrOc7KHJ-qA-82" value="&lt;b&gt;5.3. Adım&lt;/b&gt;&lt;br&gt;Sistemin ihtiyacı olan ana Widget&#39;ları oluşturmak." style="points=[[0.25,0,0],[0.5,0,0],[0.75,0,0],[1,0.25,0],[1,0.5,0],[1,0.75,0],[0.75,1,0],[0.5,1,0],[0.25,1,0],[0,0.75,0],[0,0.5,0],[0,0.25,0]];shape=mxgraph.bpmn.task;whiteSpace=wrap;rectStyle=rounded;size=10;html=1;container=1;expand=0;collapsible=0;taskMarker=abstract;fillColor=#FFFF99;" vertex="1" parent="PVPJIV_usJrOc7KHJ-qA-81">
          <mxGeometry x="350" y="165" width="130" height="70" as="geometry" />
        </mxCell>
        <mxCell id="PVPJIV_usJrOc7KHJ-qA-83" value="&lt;b&gt;5.2. Adım&lt;/b&gt;&lt;br&gt;Sistemin ihtiyacı olan fonksiyonları oluşturmak." style="points=[[0.25,0,0],[0.5,0,0],[0.75,0,0],[1,0.25,0],[1,0.5,0],[1,0.75,0],[0.75,1,0],[0.5,1,0],[0.25,1,0],[0,0.75,0],[0,0.5,0],[0,0.25,0]];shape=mxgraph.bpmn.task;whiteSpace=wrap;rectStyle=rounded;size=10;html=1;container=1;expand=0;collapsible=0;taskMarker=abstract;" vertex="1" parent="PVPJIV_usJrOc7KHJ-qA-81">
          <mxGeometry x="180" y="165" width="130" height="70" as="geometry" />
        </mxCell>
        <mxCell id="PVPJIV_usJrOc7KHJ-qA-84" value="&lt;b&gt;5.1. Adım&lt;/b&gt;&lt;br&gt;Sistemin ihtiyacı olan sınıfları oluşturmak." style="points=[[0.25,0,0],[0.5,0,0],[0.75,0,0],[1,0.25,0],[1,0.5,0],[1,0.75,0],[0.75,1,0],[0.5,1,0],[0.25,1,0],[0,0.75,0],[0,0.5,0],[0,0.25,0]];shape=mxgraph.bpmn.task;whiteSpace=wrap;rectStyle=rounded;size=10;html=1;container=1;expand=0;collapsible=0;taskMarker=abstract;" vertex="1" parent="PVPJIV_usJrOc7KHJ-qA-81">
          <mxGeometry y="165" width="140" height="70" as="geometry" />
        </mxCell>
        <mxCell id="PVPJIV_usJrOc7KHJ-qA-85" value="&lt;b&gt;4.1. Adım&lt;/b&gt;&lt;br&gt;Sistemin ihtiyacı olan UseCase diyagramlarını oluşturmak." style="points=[[0.25,0,0],[0.5,0,0],[0.75,0,0],[1,0.25,0],[1,0.5,0],[1,0.75,0],[0.75,1,0],[0.5,1,0],[0.25,1,0],[0,0.75,0],[0,0.5,0],[0,0.25,0]];shape=mxgraph.bpmn.task;whiteSpace=wrap;rectStyle=rounded;size=10;html=1;container=1;expand=0;collapsible=0;taskMarker=abstract;" vertex="1" parent="PVPJIV_usJrOc7KHJ-qA-81">
          <mxGeometry y="-145" width="140" height="70" as="geometry" />
        </mxCell>
        <mxCell id="PVPJIV_usJrOc7KHJ-qA-86" value="&lt;b&gt;1. Adım&lt;/b&gt;&lt;br&gt;Sistem ihtiyaçlarını belirlemek." style="points=[[0.25,0,0],[0.5,0,0],[0.75,0,0],[1,0.25,0],[1,0.5,0],[1,0.75,0],[0.75,1,0],[0.5,1,0],[0.25,1,0],[0,0.75,0],[0,0.5,0],[0,0.25,0]];shape=mxgraph.bpmn.task;whiteSpace=wrap;rectStyle=rounded;size=10;html=1;container=1;expand=0;collapsible=0;taskMarker=abstract;fillColor=#FFFF99;" vertex="1" parent="PVPJIV_usJrOc7KHJ-qA-85">
          <mxGeometry y="145" width="120" height="70" as="geometry" />
        </mxCell>
        <mxCell id="PVPJIV_usJrOc7KHJ-qA-87" value="&lt;b&gt;4.3. Adım&lt;/b&gt;&lt;br&gt;Sistemin ihtiyacı olan Activity diyagramlarını oluşturmak." style="points=[[0.25,0,0],[0.5,0,0],[0.75,0,0],[1,0.25,0],[1,0.5,0],[1,0.75,0],[0.75,1,0],[0.5,1,0],[0.25,1,0],[0,0.75,0],[0,0.5,0],[0,0.25,0]];shape=mxgraph.bpmn.task;whiteSpace=wrap;rectStyle=rounded;size=10;html=1;container=1;expand=0;collapsible=0;taskMarker=abstract;" vertex="1" parent="PVPJIV_usJrOc7KHJ-qA-81">
          <mxGeometry x="360" y="-145" width="140" height="70" as="geometry" />
        </mxCell>
        <mxCell id="PVPJIV_usJrOc7KHJ-qA-88" value="&lt;b&gt;4.3. Adım&lt;/b&gt;&lt;br&gt;Sistemin ihtiyacı olan Activity diyagramlarını oluşturmak." style="points=[[0.25,0,0],[0.5,0,0],[0.75,0,0],[1,0.25,0],[1,0.5,0],[1,0.75,0],[0.75,1,0],[0.5,1,0],[0.25,1,0],[0,0.75,0],[0,0.5,0],[0,0.25,0]];shape=mxgraph.bpmn.task;whiteSpace=wrap;rectStyle=rounded;size=10;html=1;container=1;expand=0;collapsible=0;taskMarker=abstract;" vertex="1" parent="PVPJIV_usJrOc7KHJ-qA-74">
          <mxGeometry x="10" y="-310" width="140" height="70" as="geometry" />
        </mxCell>
        <mxCell id="PVPJIV_usJrOc7KHJ-qA-75" value="&lt;b&gt;5.2. Adım&lt;/b&gt;&lt;br&gt;Sistemin ihtiyacı olan fonksiyonları oluşturmak." style="points=[[0.25,0,0],[0.5,0,0],[0.75,0,0],[1,0.25,0],[1,0.5,0],[1,0.75,0],[0.75,1,0],[0.5,1,0],[0.25,1,0],[0,0.75,0],[0,0.5,0],[0,0.25,0]];shape=mxgraph.bpmn.task;whiteSpace=wrap;rectStyle=rounded;size=10;html=1;container=1;expand=0;collapsible=0;taskMarker=abstract;fillColor=#FFFF99;" vertex="1" parent="PVPJIV_usJrOc7KHJ-qA-45">
          <mxGeometry x="180" y="165" width="130" height="70" as="geometry" />
        </mxCell>
        <mxCell id="PVPJIV_usJrOc7KHJ-qA-76" value="&lt;b&gt;5.1. Adım&lt;/b&gt;&lt;br&gt;Sistemin ihtiyacı olan sınıfları oluşturmak." style="points=[[0.25,0,0],[0.5,0,0],[0.75,0,0],[1,0.25,0],[1,0.5,0],[1,0.75,0],[0.75,1,0],[0.5,1,0],[0.25,1,0],[0,0.75,0],[0,0.5,0],[0,0.25,0]];shape=mxgraph.bpmn.task;whiteSpace=wrap;rectStyle=rounded;size=10;html=1;container=1;expand=0;collapsible=0;taskMarker=abstract;fillColor=#FFFF99;" vertex="1" parent="PVPJIV_usJrOc7KHJ-qA-45">
          <mxGeometry y="165" width="140" height="70" as="geometry" />
        </mxCell>
        <mxCell id="PVPJIV_usJrOc7KHJ-qA-77" value="&lt;b&gt;4.1. Adım&lt;/b&gt;&lt;br&gt;Sistemin ihtiyacı olan UseCase diyagramlarını oluşturmak." style="points=[[0.25,0,0],[0.5,0,0],[0.75,0,0],[1,0.25,0],[1,0.5,0],[1,0.75,0],[0.75,1,0],[0.5,1,0],[0.25,1,0],[0,0.75,0],[0,0.5,0],[0,0.25,0]];shape=mxgraph.bpmn.task;whiteSpace=wrap;rectStyle=rounded;size=10;html=1;container=1;expand=0;collapsible=0;taskMarker=abstract;fillColor=#FFFF99;" vertex="1" parent="PVPJIV_usJrOc7KHJ-qA-45">
          <mxGeometry y="-145" width="140" height="70" as="geometry" />
        </mxCell>
        <mxCell id="PVPJIV_usJrOc7KHJ-qA-78" value="&lt;b&gt;1. Adım&lt;/b&gt;&lt;br&gt;Sistem ihtiyaçlarını belirlemek." style="points=[[0.25,0,0],[0.5,0,0],[0.75,0,0],[1,0.25,0],[1,0.5,0],[1,0.75,0],[0.75,1,0],[0.5,1,0],[0.25,1,0],[0,0.75,0],[0,0.5,0],[0,0.25,0]];shape=mxgraph.bpmn.task;whiteSpace=wrap;rectStyle=rounded;size=10;html=1;container=1;expand=0;collapsible=0;taskMarker=abstract;fillColor=#FFFF99;" vertex="1" parent="PVPJIV_usJrOc7KHJ-qA-77">
          <mxGeometry y="145" width="120" height="70" as="geometry" />
        </mxCell>
        <mxCell id="PVPJIV_usJrOc7KHJ-qA-79" value="&lt;b&gt;4.3. Adım&lt;/b&gt;&lt;br&gt;Sistemin ihtiyacı olan Activity diyagramlarını oluşturmak." style="points=[[0.25,0,0],[0.5,0,0],[0.75,0,0],[1,0.25,0],[1,0.5,0],[1,0.75,0],[0.75,1,0],[0.5,1,0],[0.25,1,0],[0,0.75,0],[0,0.5,0],[0,0.25,0]];shape=mxgraph.bpmn.task;whiteSpace=wrap;rectStyle=rounded;size=10;html=1;container=1;expand=0;collapsible=0;taskMarker=abstract;" vertex="1" parent="PVPJIV_usJrOc7KHJ-qA-45">
          <mxGeometry x="360" y="-145" width="140" height="70" as="geometry" />
        </mxCell>
        <mxCell id="oHoN3_NJpQbHfXJQ5s68-54" style="edgeStyle=orthogonalEdgeStyle;rounded=0;orthogonalLoop=1;jettySize=auto;html=1;" parent="oHoN3_NJpQbHfXJQ5s68-24" source="oHoN3_NJpQbHfXJQ5s68-49" edge="1">
          <mxGeometry relative="1" as="geometry">
            <mxPoint x="660" y="95" as="targetPoint" />
          </mxGeometry>
        </mxCell>
        <mxCell id="oHoN3_NJpQbHfXJQ5s68-49" value="&lt;b&gt;4.3. Adım&lt;/b&gt;&lt;br&gt;Sistemin ihtiyacı olan Activity diyagramlarını oluşturmak." style="points=[[0.25,0,0],[0.5,0,0],[0.75,0,0],[1,0.25,0],[1,0.5,0],[1,0.75,0],[0.75,1,0],[0.5,1,0],[0.25,1,0],[0,0.75,0],[0,0.5,0],[0,0.25,0]];shape=mxgraph.bpmn.task;whiteSpace=wrap;rectStyle=rounded;size=10;html=1;container=1;expand=0;collapsible=0;taskMarker=abstract;fillColor=#FFFF99;" parent="oHoN3_NJpQbHfXJQ5s68-24" vertex="1">
          <mxGeometry x="480" y="60" width="140" height="70" as="geometry" />
        </mxCell>
        <mxCell id="PVPJIV_usJrOc7KHJ-qA-16" value="" style="edgeStyle=elbowEdgeStyle;fontSize=12;html=1;endFill=0;startFill=0;endSize=6;startSize=6;dashed=1;dashPattern=1 4;endArrow=openThin;startArrow=none;rounded=0;" edge="1" parent="oHoN3_NJpQbHfXJQ5s68-24">
          <mxGeometry width="160" relative="1" as="geometry">
            <mxPoint x="57.269999999999996" y="155" as="sourcePoint" />
            <mxPoint x="57.269999999999996" y="115" as="targetPoint" />
          </mxGeometry>
        </mxCell>
        <mxCell id="PVPJIV_usJrOc7KHJ-qA-37" value="UML süreç start" style="text;html=1;strokeColor=none;fillColor=none;align=center;verticalAlign=middle;whiteSpace=wrap;rounded=0;" vertex="1" parent="oHoN3_NJpQbHfXJQ5s68-24">
          <mxGeometry x="27.5" y="40" width="60" height="30" as="geometry" />
        </mxCell>
        <mxCell id="PVPJIV_usJrOc7KHJ-qA-38" value="UML süreç finish" style="text;html=1;strokeColor=none;fillColor=none;align=center;verticalAlign=middle;whiteSpace=wrap;rounded=0;" vertex="1" parent="oHoN3_NJpQbHfXJQ5s68-24">
          <mxGeometry x="645" y="40" width="70" height="30" as="geometry" />
        </mxCell>
        <mxCell id="PVPJIV_usJrOc7KHJ-qA-42" value="" style="points=[[0.145,0.145,0],[0.5,0,0],[0.855,0.145,0],[1,0.5,0],[0.855,0.855,0],[0.5,1,0],[0.145,0.855,0],[0,0.5,0]];shape=mxgraph.bpmn.event;html=1;verticalLabelPosition=bottom;labelBackgroundColor=#ffffff;verticalAlign=top;align=center;perimeter=ellipsePerimeter;outlineConnect=0;aspect=fixed;outline=throwing;symbol=general;fillColor=#FFB366;" vertex="1" parent="oHoN3_NJpQbHfXJQ5s68-24">
          <mxGeometry x="660" y="75" width="40" height="40" as="geometry" />
        </mxCell>
        <mxCell id="PVPJIV_usJrOc7KHJ-qA-22" value="" style="edgeStyle=elbowEdgeStyle;fontSize=12;html=1;endFill=0;startFill=0;endSize=6;startSize=6;dashed=1;dashPattern=1 4;endArrow=openThin;startArrow=none;rounded=0;entryX=0.75;entryY=1;entryDx=0;entryDy=0;entryPerimeter=0;" edge="1" parent="oHoN3_NJpQbHfXJQ5s68-1" target="oHoN3_NJpQbHfXJQ5s68-11">
          <mxGeometry width="160" relative="1" as="geometry">
            <mxPoint x="1050" y="340" as="sourcePoint" />
            <mxPoint x="1170" y="350" as="targetPoint" />
          </mxGeometry>
        </mxCell>
        <mxCell id="PVPJIV_usJrOc7KHJ-qA-15" value="" style="edgeStyle=elbowEdgeStyle;fontSize=12;html=1;endFill=0;startFill=0;endSize=6;startSize=6;dashed=1;dashPattern=1 4;endArrow=none;startArrow=none;rounded=0;exitX=0.25;exitY=0;exitDx=0;exitDy=0;exitPerimeter=0;" edge="1" parent="1" source="oHoN3_NJpQbHfXJQ5s68-10">
          <mxGeometry width="160" relative="1" as="geometry">
            <mxPoint x="650" y="330" as="sourcePoint" />
            <mxPoint x="130" y="190" as="targetPoint" />
            <Array as="points">
              <mxPoint x="820" y="210" />
            </Array>
          </mxGeometry>
        </mxCell>
        <mxCell id="PVPJIV_usJrOc7KHJ-qA-18" value="" style="edgeStyle=elbowEdgeStyle;fontSize=12;html=1;endFill=0;startFill=0;endSize=6;startSize=6;dashed=1;dashPattern=1 4;endArrow=openThin;startArrow=none;rounded=0;entryX=0.75;entryY=0;entryDx=0;entryDy=0;entryPerimeter=0;" edge="1" parent="1" target="oHoN3_NJpQbHfXJQ5s68-10">
          <mxGeometry width="160" relative="1" as="geometry">
            <mxPoint x="898" y="160" as="sourcePoint" />
            <mxPoint x="890" y="200" as="targetPoint" />
            <Array as="points">
              <mxPoint x="898" y="180" />
              <mxPoint x="910" y="190" />
            </Array>
          </mxGeometry>
        </mxCell>
        <mxCell id="PVPJIV_usJrOc7KHJ-qA-19" value="" style="edgeStyle=elbowEdgeStyle;fontSize=12;html=1;endFill=0;startFill=0;endSize=6;startSize=6;dashed=1;dashPattern=1 4;endArrow=none;startArrow=none;rounded=0;exitX=0.5;exitY=1;exitDx=0;exitDy=0;exitPerimeter=0;" edge="1" parent="1">
          <mxGeometry width="160" relative="1" as="geometry">
            <mxPoint x="750" y="145" as="sourcePoint" />
            <mxPoint x="900" y="160" as="targetPoint" />
            <Array as="points">
              <mxPoint x="750" y="160" />
            </Array>
          </mxGeometry>
        </mxCell>
        <mxCell id="PVPJIV_usJrOc7KHJ-qA-20" value="" style="edgeStyle=elbowEdgeStyle;fontSize=12;html=1;endFill=0;startFill=0;endSize=6;startSize=6;dashed=1;dashPattern=1 4;endArrow=openThin;startArrow=none;rounded=0;entryX=0.5;entryY=0;entryDx=0;entryDy=0;entryPerimeter=0;" edge="1" parent="1" target="oHoN3_NJpQbHfXJQ5s68-55">
          <mxGeometry width="160" relative="1" as="geometry">
            <mxPoint x="130" y="390" as="sourcePoint" />
            <mxPoint x="110" y="400" as="targetPoint" />
            <Array as="points">
              <mxPoint x="130" y="370" />
            </Array>
          </mxGeometry>
        </mxCell>
        <mxCell id="PVPJIV_usJrOc7KHJ-qA-21" value="" style="edgeStyle=elbowEdgeStyle;fontSize=12;html=1;endFill=0;startFill=0;endSize=6;startSize=6;dashed=1;dashPattern=1 4;endArrow=none;startArrow=none;rounded=0;entryX=0.25;entryY=1;entryDx=0;entryDy=0;entryPerimeter=0;" edge="1" parent="1" target="oHoN3_NJpQbHfXJQ5s68-11">
          <mxGeometry width="160" relative="1" as="geometry">
            <mxPoint x="130" y="370" as="sourcePoint" />
            <mxPoint x="1010" y="380" as="targetPoint" />
            <Array as="points">
              <mxPoint x="1020" y="370" />
            </Array>
          </mxGeometry>
        </mxCell>
        <mxCell id="PVPJIV_usJrOc7KHJ-qA-23" value="" style="edgeStyle=elbowEdgeStyle;fontSize=12;html=1;endFill=0;startFill=0;endSize=6;startSize=6;dashed=1;dashPattern=1 4;endArrow=none;startArrow=none;rounded=0;exitX=0.5;exitY=0;exitDx=0;exitDy=0;exitPerimeter=0;" edge="1" parent="1">
          <mxGeometry width="160" relative="1" as="geometry">
            <mxPoint x="1067.5" y="417.5" as="sourcePoint" />
            <mxPoint x="1080" y="370" as="targetPoint" />
            <Array as="points">
              <mxPoint x="1068" y="400" />
            </Array>
          </mxGeometry>
        </mxCell>
      </root>
    </mxGraphModel>
  </diagram>
</mxfile>
